#N canvas 441 23 1479 1092 16;
#X obj 239 718 freeverb~;
#X msg 584 621 roomsize \$1;
#X msg 583 682 damping \$1;
#X msg 579 752 wet \$1;
#X msg 578 773 dry \$1;
#X msg 597 842 freeze \$1;
#X msg 597 882 bypass \$1;
#X obj 177 20 adc~;
#X obj 479 684 dac~;
#X obj 597 825 tgl 15 0 empty empty empty 17 7 0 10 -262144 -1 -1 0
1;
#X obj 597 865 tgl 15 0 empty empty empty 17 7 0 10 -262144 -1 -1 0
1;
#X obj 687 708 hsl 128 15 0 1 0 0 empty empty empty -2 -8 0 10 -4032
-1 -1 3900 1;
#X floatatom 708 734 5 0 0 0 - - -;
#X obj 639 756 expr 1-$f1;
#X obj 738 588 hsl 128 15 0 1 0 0 empty empty empty -2 -8 0 10 -4034
-1 -1 7700 1;
#X obj 711 657 hsl 128 15 0 1 0 0 empty empty empty -2 -8 0 10 -260097
-1 -1 2600 1;
#X floatatom 708 677 5 0 0 0 - - -;
#X floatatom 706 625 5 0 0 0 - - -;
#X text 688 831 Freeze the reverb;
#X text 688 891 the dry signal pass through.;
#X text 687 878 Trun the reverb off and let;
#X text 758 742 Wet signal to dry signal ratio;
#X text 758 758 (0 : all dry \, 1 : all wet);
#X text 759 677 Damping level;
#X text 758 623 Roomize;
#X text 599 800 Pierre Massat \, GuitarExtended \, 2012;
#X msg -44 445 open BlueBells-1.wav \, 1;
#X msg 121 446 open BlueBells-2.wav \, 1;
#X obj -30 488 readsf~ 2;
#X obj -148 -17 comport 6 9600;
#X obj 94 39 print;
#X obj -8 42 -;
#X msg 34 11 48;
#X obj -20 319 spigot;
#X obj -39 196 == 0;
#X obj 91 192 == 1;
#X obj 119 303 spigot;
#X obj 119 490 readsf~ 2;
#X obj 276 306 spigot;
#X obj 278 491 readsf~ 2;
#X obj 428 314 spigot;
#X obj 433 492 readsf~ 2;
#X obj 550 300 spigot;
#X obj 584 486 readsf~ 2;
#X obj 250 193 == 2;
#X obj 405 194 == 3;
#X obj 556 188 == 4;
#X msg 280 447 open BlueBells-3.wav \, 1;
#X msg 435 448 open BlueBells-4.wav \, 1;
#X msg 586 442 open BlueBells-5.wav \, 1;
#X obj -55 335 bng 15 250 50 0 empty empty empty 17 7 0 10 -262144
-1 -1;
#X obj 121 330 bng 15 250 50 0 empty empty empty 17 7 0 10 -262144
-1 -1;
#X obj 293 331 bng 15 250 50 0 empty empty empty 17 7 0 10 -262144
-1 -1;
#X obj 449 331 bng 15 250 50 0 empty empty empty 17 7 0 10 -262144
-1 -1;
#X obj 601 329 bng 15 250 50 0 empty empty empty 17 7 0 10 -262144
-1 -1;
#X floatatom 50 327 5 0 0 0 - - -;
#X floatatom 180 319 5 0 0 0 - - -;
#X floatatom 343 333 5 0 0 0 - - -;
#X obj -22 388 t b b;
#X connect 0 0 8 0;
#X connect 0 0 8 1;
#X connect 1 0 0 0;
#X connect 2 0 0 0;
#X connect 3 0 0 0;
#X connect 4 0 0 0;
#X connect 5 0 0 0;
#X connect 6 0 0 0;
#X connect 9 0 5 0;
#X connect 10 0 6 0;
#X connect 11 0 12 0;
#X connect 11 0 3 0;
#X connect 11 0 13 0;
#X connect 13 0 4 0;
#X connect 14 0 1 0;
#X connect 14 0 17 0;
#X connect 15 0 2 0;
#X connect 15 0 16 0;
#X connect 26 0 28 0;
#X connect 27 0 37 0;
#X connect 28 0 0 0;
#X connect 29 0 31 0;
#X connect 31 0 30 0;
#X connect 31 0 34 0;
#X connect 31 0 35 0;
#X connect 31 0 44 0;
#X connect 31 0 45 0;
#X connect 31 0 46 0;
#X connect 32 0 31 1;
#X connect 33 0 50 0;
#X connect 33 0 58 0;
#X connect 34 0 33 1;
#X connect 34 0 33 0;
#X connect 35 0 36 1;
#X connect 35 0 36 0;
#X connect 36 0 27 0;
#X connect 36 0 51 0;
#X connect 37 0 0 0;
#X connect 38 0 47 0;
#X connect 38 0 52 0;
#X connect 39 0 0 0;
#X connect 40 0 48 0;
#X connect 40 0 53 0;
#X connect 41 0 0 0;
#X connect 42 0 49 0;
#X connect 42 0 54 0;
#X connect 43 0 0 0;
#X connect 44 0 38 1;
#X connect 44 0 38 0;
#X connect 45 0 40 1;
#X connect 45 0 40 0;
#X connect 46 0 42 1;
#X connect 46 0 42 0;
#X connect 47 0 39 0;
#X connect 48 0 41 0;
#X connect 49 0 43 0;
#X connect 58 0 26 0;
#X connect 58 1 26 0;
