#N canvas 437 65 1479 924 16;
#X obj 239 718 freeverb~;
#X msg 597 842 freeze \$1;
#X msg 597 882 bypass \$1;
#X obj 177 20 adc~;
#X obj 479 684 dac~;
#X obj 597 825 tgl 15 0 empty empty empty 17 7 0 10 -262144 -1 -1 0
1;
#X obj 597 865 tgl 15 0 empty empty empty 17 7 0 10 -262144 -1 -1 0
1;
#X floatatom 708 677 5 0 0 0 - - -;
#X text 688 831 Freeze the reverb;
#X text 688 891 the dry signal pass through.;
#X text 687 878 Trun the reverb off and let;
#X text 758 742 Wet signal to dry signal ratio;
#X text 758 758 (0 : all dry \, 1 : all wet);
#X text 759 677 Damping level;
#X text 758 623 Roomize;
#X text 599 800 Pierre Massat \, GuitarExtended \, 2012;
#X msg -44 445 open BlueBells-1.wav \, 1;
#X msg 121 446 open BlueBells-2.wav \, 1;
#X obj -30 488 readsf~ 2;
#X obj -148 -17 comport 1 9600;
#X obj 94 39 print;
#X obj -8 42 -;
#X msg 34 11 48;
#X obj -20 319 spigot;
#X obj -39 196 == 0;
#X obj 91 192 == 1;
#X obj 119 303 spigot;
#X obj 119 490 readsf~ 2;
#X obj 276 306 spigot;
#X obj 278 491 readsf~ 2;
#X obj 428 314 spigot;
#X obj 433 492 readsf~ 2;
#X obj 550 300 spigot;
#X obj 584 486 readsf~ 2;
#X obj 250 193 == 2;
#X obj 405 194 == 3;
#X obj 556 188 == 4;
#X msg 280 447 open BlueBells-3.wav \, 1;
#X msg 435 448 open BlueBells-4.wav \, 1;
#X msg 586 442 open BlueBells-5.wav \, 1;
#X obj -55 335 bng 15 250 50 0 empty empty empty 17 7 0 10 -262144
-1 -1;
#X obj 121 330 bng 15 250 50 0 empty empty empty 17 7 0 10 -262144
-1 -1;
#X obj 293 331 bng 15 250 50 0 empty empty empty 17 7 0 10 -262144
-1 -1;
#X obj 449 331 bng 15 250 50 0 empty empty empty 17 7 0 10 -262144
-1 -1;
#X obj 601 329 bng 15 250 50 0 empty empty empty 17 7 0 10 -262144
-1 -1;
#X floatatom 50 327 5 0 0 0 - - -;
#X floatatom 180 319 5 0 0 0 - - -;
#X floatatom 343 333 5 0 0 0 - - -;
#X obj -22 388 t b b;
#X obj 662 82 loadbang;
#X obj 688 125 delay 1000;
#X obj 752 189;
#X msg 698 179 \; pd dsp 1;
#X msg 584 621 roomsize 0.653;
#X msg 583 682 damping 0.212;
#X msg 579 733 wet 0.874;
#X msg 579 773 dry 0.126;
#X connect 0 0 4 0;
#X connect 0 0 4 1;
#X connect 1 0 0 0;
#X connect 2 0 0 0;
#X connect 5 0 1 0;
#X connect 6 0 2 0;
#X connect 16 0 18 0;
#X connect 17 0 27 0;
#X connect 18 0 0 0;
#X connect 19 0 21 0;
#X connect 19 0 22 0;
#X connect 21 0 20 0;
#X connect 21 0 24 0;
#X connect 21 0 25 0;
#X connect 21 0 34 0;
#X connect 21 0 35 0;
#X connect 21 0 36 0;
#X connect 22 0 21 1;
#X connect 23 0 40 0;
#X connect 23 0 48 0;
#X connect 24 0 23 1;
#X connect 24 0 23 0;
#X connect 25 0 26 1;
#X connect 25 0 26 0;
#X connect 26 0 17 0;
#X connect 26 0 41 0;
#X connect 27 0 0 0;
#X connect 28 0 37 0;
#X connect 28 0 42 0;
#X connect 29 0 0 0;
#X connect 30 0 38 0;
#X connect 30 0 43 0;
#X connect 31 0 0 0;
#X connect 32 0 39 0;
#X connect 32 0 44 0;
#X connect 33 0 0 0;
#X connect 34 0 28 1;
#X connect 34 0 28 0;
#X connect 35 0 30 1;
#X connect 35 0 30 0;
#X connect 36 0 32 1;
#X connect 36 0 32 0;
#X connect 37 0 29 0;
#X connect 38 0 31 0;
#X connect 39 0 33 0;
#X connect 48 0 16 0;
#X connect 48 1 16 0;
#X connect 49 0 50 0;
#X connect 50 0 52 0;
#X connect 53 0 0 0;
#X connect 54 0 0 0;
#X connect 55 0 0 0;
#X connect 56 0 0 0;
